<?xml version="1.0" encoding="utf-8"?>
<!-- Generator: Adobe Illustrator 16.0.0, SVG Export Plug-In . SVG Version: 6.00 Build 0)  -->
<!DOCTYPE svg PUBLIC "-//W3C//DTD SVG 1.1//EN" "http://www.w3.org/Graphics/SVG/1.1/DTD/svg11.dtd">
<svg version="1.1" id="Ebene_1" xmlns="http://www.w3.org/2000/svg" xmlns:xlink="http://www.w3.org/1999/xlink" x="0px" y="0px"
	 width="124px" height="25px" viewBox="0 0 124 25" enable-background="new 0 0 124 25" xml:space="preserve">
<title>logo</title>
<desc>Created with Sketch.</desc>
<g id="Page-1">
	<g id="logo">
		<path id="Shape" fill="#1D1D1B" d="M123.41,20.738c-0.34,0.068-1.178,0.128-1.709,0.128c-1.34,0-2.115-0.321-2.115-2.923v-6.167
			h3.328V8.854h-3.328V4.326h-3.393v4.528h-2.457v2.923h2.457v6.97c0,5.043,3.047,5.271,4.697,5.271c0.99,0,1.996-0.099,2.52-0.195
			V20.738z M98.07,23.822h3.393v-7.741c0-2.569,1.117-4.527,3.48-4.527c2.432,0,3.145,1.958,3.145,4.527v7.741h3.389v-8.895
			c0-2.062-0.213-3.313-0.93-4.438c-0.809-1.252-2.271-2.023-4.357-2.023c-2.143,0-3.826,0.864-4.727,2.468V1.334H98.07V23.822z
			 M94.824,14.314c-0.221-2.892-2.15-5.846-6.877-5.846c-4.699,0-7.217,3.82-7.217,7.87c0,4.083,2.518,7.87,7.244,7.87
			c4.207,0,6.418-2.408,6.883-5.524h-3.393c-0.438,1.512-1.25,2.407-3.236,2.407c-2.926,0-4.105-2.185-4.105-4.753
			c0-2.538,1.277-4.753,3.889-4.753c2.297,0,3.236,1.088,3.42,2.729H94.824L94.824,14.314z M73.447,3.394
			c0,1.411,1.121,2.569,2.49,2.569c1.396,0,2.516-1.158,2.516-2.569c0-1.443-1.117-2.603-2.516-2.603
			C74.568,0.791,73.447,1.95,73.447,3.394L73.447,3.394z M74.256,23.822h3.389V8.855h-3.389V23.822z M67.025,15.373
			c-2.646-1.059-3.984-1.219-3.984-2.505c0-1.057,0.934-1.636,2.086-1.636c1.646,0,2.33,0.9,2.33,2.312h3.301
			c0-2.925-2.459-5.075-5.539-5.075c-2.954,0-5.444,1.512-5.444,4.335c0,2.602,1.43,3.374,3.45,4.174
			c3.051,1.224,4.514,1.317,4.514,2.729c0,1.288-1.021,1.736-2.361,1.736c-1.619,0-2.801-0.707-2.801-2.666h-3.298
			c0,3.531,2.799,5.431,5.916,5.431c3.172,0,5.781-1.44,5.781-4.562C70.973,16.918,69.043,16.178,67.025,15.373L67.025,15.373z
			 M57.472,20.738c-0.337,0.068-1.182,0.128-1.708,0.128c-1.338,0-2.119-0.321-2.119-2.923v-6.167h3.333V8.854h-3.333V4.326h-3.389
			v4.528H47.8v2.923h2.457v6.97c0,5.043,3.051,5.271,4.698,5.271c0.993,0,1.99-0.099,2.517-0.195V20.738z M41.156,3.394
			c0,1.411,1.121,2.569,2.485,2.569c1.405,0,2.523-1.158,2.523-2.569c0-1.443-1.119-2.603-2.523-2.603
			C42.276,0.791,41.156,1.95,41.156,3.394L41.156,3.394z M41.96,23.822h3.392V8.855H41.96V23.822z M38.47,17.396
			c0.153-0.967,0.153-1.67,0.153-2.187c0-3.819-2.956-6.743-6.715-6.743c-4.577,0-7.162,3.369-7.162,7.87
			c0,4.397,2.369,7.87,7.25,7.87c3.704,0,6.101-2.312,6.505-4.881H35.08c-0.405,1.062-1.155,1.958-3.083,1.958
			c-2.83,0-3.732-1.739-3.889-3.892H38.47V17.396z M31.813,11.103c2.052,0,3.516,1.411,3.516,3.691h-7.222
			C28.107,12.357,29.725,11.103,31.813,11.103L31.813,11.103z M16.118,23.822h2.269L24.02,8.855h-3.639l-3.145,9.474L13.97,8.855
			h-3.328l-3.267,9.474L4.23,8.855H0.59l5.632,14.967h2.273l3.827-11.18L16.118,23.822z"/>
	</g>
</g>
</svg>
