<?xml version="1.0" encoding="utf-8"?>
<!-- Generator: Adobe Illustrator 16.0.0, SVG Export Plug-In . SVG Version: 6.00 Build 0)  -->
<!DOCTYPE svg PUBLIC "-//W3C//DTD SVG 1.1//EN" "http://www.w3.org/Graphics/SVG/1.1/DTD/svg11.dtd">
<svg version="1.1" id="Ebene_2" xmlns="http://www.w3.org/2000/svg" xmlns:xlink="http://www.w3.org/1999/xlink" x="0px" y="0px"
	 width="254px" height="261px" viewBox="-29.5 -56 254 261" enable-background="new -29.5 -56 254 261" xml:space="preserve">
<path fill="#1D1D1B" d="M170.721,178.042c-0.977,0-1.769-0.792-1.769-1.771V-6.475c0-0.978,0.792-1.769,1.769-1.769
	s1.77,0.791,1.77,1.769v182.75C172.488,177.25,171.697,178.042,170.721,178.042z"/>
<path fill="#1D1D1B" d="M137.016,4.729c-0.453,0-0.904-0.172-1.25-0.518c-0.689-0.689-0.689-1.81,0-2.501l33.9-33.902
	c0.689-0.691,1.811-0.691,2.501,0L206.07,1.709c0.691,0.69,0.691,1.81,0,2.501c-0.689,0.691-1.811,0.691-2.5,0l-32.652-32.652
	L138.266,4.21C137.92,4.555,137.468,4.729,137.016,4.729z"/>
<g>
	<g enable-background="new    ">
		<path d="M10.122,81.059h2.106v14.418h5.625v1.62h-7.731V81.059z"/>
		<path d="M20.966,95.498c-1.165-1.202-1.748-2.785-1.748-4.744c0-1.961,0.61-3.546,1.829-4.754c1.22-1.212,2.747-1.817,4.583-1.817
			s3.364,0.604,4.583,1.817c1.219,1.208,1.829,2.791,1.829,4.742c0,1.952-0.638,3.532-1.909,4.746
			c-1.273,1.212-2.828,1.816-4.664,1.816S22.131,96.702,20.966,95.498z M25.468,95.569c1.188,0,2.218-0.429,3.091-1.285
			c0.873-0.855,1.308-2.041,1.308-3.554c0-1.51-0.417-2.691-1.25-3.54c-0.834-0.849-1.85-1.273-3.045-1.273
			c-1.194,0-2.195,0.425-2.997,1.273c-0.802,0.849-1.204,2.033-1.204,3.553s0.386,2.706,1.156,3.555
			C23.3,95.144,24.28,95.569,25.468,95.569z"/>
		<path d="M35.594,95.498c-1.166-1.202-1.747-2.785-1.747-4.744c0-1.961,0.61-3.546,1.829-4.754
			c1.219-1.212,2.746-1.817,4.583-1.817c1.836,0,3.363,0.604,4.582,1.817c1.219,1.208,1.829,2.791,1.829,4.742
			c0,1.952-0.638,3.532-1.909,4.746c-1.273,1.212-2.827,1.816-4.664,1.816C38.261,97.303,36.759,96.702,35.594,95.498z
			 M40.095,95.569c1.188,0,2.219-0.429,3.092-1.285c0.872-0.855,1.307-2.041,1.307-3.554c0-1.51-0.415-2.691-1.249-3.54
			c-0.833-0.849-1.849-1.273-3.045-1.273s-2.195,0.425-2.998,1.273c-0.802,0.849-1.204,2.033-1.204,3.553s0.386,2.706,1.157,3.555
			C37.927,95.144,38.907,95.569,40.095,95.569z"/>
		<path d="M51.413,97.095h-2.106V79.969h2.106v10.045l4.86-5.626h2.963l-5.995,6.318l5.995,6.388h-2.847l-4.977-5.578V97.095z"/>
		<path d="M69.038,95.498c-1.166-1.202-1.746-2.785-1.746-4.744c0-1.961,0.608-3.546,1.827-4.754
			c1.22-1.212,2.747-1.817,4.583-1.817c1.836,0,3.364,0.604,4.582,1.817c1.219,1.208,1.829,2.791,1.829,4.742
			c0,1.952-0.639,3.532-1.909,4.746c-1.272,1.212-2.828,1.816-4.664,1.816C71.704,97.303,70.203,96.702,69.038,95.498z
			 M73.539,95.569c1.188,0,2.219-0.429,3.091-1.285c0.873-0.855,1.309-2.041,1.309-3.554c0-1.51-0.417-2.691-1.25-3.54
			c-0.834-0.849-1.849-1.273-3.043-1.273c-1.196,0-2.197,0.425-2.998,1.273c-0.802,0.849-1.203,2.033-1.203,3.553
			s0.386,2.706,1.155,3.555C71.372,95.144,72.351,95.569,73.539,95.569z"/>
		<path d="M91.71,84.389h2.107v12.706H91.71v-2.037c-0.848,1.498-2.23,2.245-4.144,2.245c-1.404,0-2.577-0.468-3.518-1.402
			c-0.941-0.935-1.414-2.257-1.414-3.969v-7.545h2.084v7.196c0,1.267,0.313,2.235,0.938,2.907c0.625,0.67,1.477,1.006,2.557,1.006
			c1.079,0,1.932-0.336,2.557-1.006c0.625-0.673,0.938-1.64,0.938-2.907v-7.193H91.71z"/>
		<path d="M101.453,95.384h1.734v1.712h-2.129c-2.206,0-3.309-1.086-3.309-3.263v-7.731h-1.644v-1.713h1.645v-3.147h2.127v3.147
			h3.288v1.713h-3.288v7.731c0,0.57,0.116,0.973,0.347,1.205C100.458,95.269,100.866,95.384,101.453,95.384z"/>
		<path d="M117.678,84.389v1.713h-2.662v10.994h-2.128V86.103h-1.644v-1.713h1.644v-1.066c0-1.388,0.37-2.398,1.11-3.033
			c0.74-0.632,1.905-0.948,3.493-0.948v1.713c-0.924,0-1.57,0.174-1.931,0.522c-0.365,0.345-0.545,0.929-0.545,1.748v1.065
			L117.678,84.389L117.678,84.389z"/>
		<path d="M120.998,95.498c-1.167-1.202-1.748-2.785-1.748-4.744c0-1.961,0.612-3.546,1.83-4.754
			c1.219-1.212,2.747-1.817,4.582-1.817c1.837,0,3.364,0.604,4.584,1.817c1.218,1.21,1.825,2.791,1.825,4.742
			c0,1.952-0.635,3.532-1.908,4.746c-1.27,1.212-2.827,1.816-4.664,1.816C123.664,97.303,122.163,96.702,120.998,95.498z
			 M125.5,95.569c1.188,0,2.219-0.429,3.091-1.285c0.873-0.855,1.309-2.041,1.309-3.554c0-1.51-0.416-2.691-1.251-3.54
			c-0.834-0.849-1.849-1.273-3.043-1.273c-1.196,0-2.197,0.425-2.999,1.273c-0.801,0.849-1.203,2.033-1.203,3.553
			s0.386,2.706,1.158,3.555C123.333,95.144,124.311,95.569,125.5,95.569z"/>
		<path d="M136.818,84.389v2.152c0.759-1.574,2.046-2.361,3.866-2.361v2.199h-0.556c-1.08,0-1.902,0.282-2.466,0.845
			c-0.564,0.564-0.845,1.539-0.845,2.929v6.942h-2.105V84.39L136.818,84.389L136.818,84.389z"/>
	</g>
	<g enable-background="new    ">
		<path d="M-10.294,130.653h1.735v1.711h-2.128c-2.207,0-3.311-1.086-3.311-3.262v-7.731h-1.645v-1.713h1.645v-3.147h2.128v3.147
			h3.288v1.713h-3.288v7.731c0,0.57,0.116,0.974,0.348,1.202C-11.29,130.537-10.88,130.653-10.294,130.653z"/>
		<path d="M-4.137,115.237v6.482c0.864-1.514,2.245-2.271,4.144-2.271c1.403,0,2.576,0.468,3.517,1.401
			c0.943,0.934,1.414,2.265,1.414,3.993v7.522H2.854v-7.174c0-1.281-0.31-2.255-0.927-2.918c-0.616-0.662-1.468-0.994-2.556-0.994
			c-1.087,0-1.944,0.332-2.569,0.994c-0.625,0.665-0.938,1.637-0.938,2.918v7.174h-2.106v-17.128L-4.137,115.237L-4.137,115.237z"/>
		<path d="M13.615,132.574c-1.82,0-3.3-0.604-4.444-1.808c-1.142-1.203-1.713-2.791-1.713-4.769c0-1.974,0.58-3.561,1.736-4.756
			c1.158-1.195,2.658-1.793,4.501-1.793c1.843,0,3.325,0.565,4.444,1.701c1.117,1.133,1.677,2.58,1.677,4.339
			c0,0.448-0.031,0.862-0.094,1.252H9.608c0.061,1.263,0.459,2.264,1.191,2.996c0.733,0.733,1.671,1.101,2.812,1.101
			c0.865,0,1.594-0.193,2.188-0.579c0.595-0.387,1.031-0.895,1.308-1.526h2.268c-0.401,1.111-1.091,2.027-2.07,2.753
			C16.328,132.211,15.097,132.574,13.615,132.574z M16.463,122.286c-0.757-0.733-1.694-1.102-2.813-1.102
			c-1.119,0-2.046,0.36-2.788,1.077c-0.742,0.716-1.149,1.7-1.227,2.951h7.985C17.604,123.997,17.218,123.018,16.463,122.286z"/>
		<path d="M36.182,119.451c1.744,0,3.191,0.6,4.34,1.793c1.149,1.195,1.725,2.763,1.725,4.699c0,1.935-0.579,3.525-1.735,4.766
			c-1.158,1.244-2.6,1.865-4.329,1.865c-1.081,0-2.025-0.258-2.836-0.775c-0.81-0.518-1.431-1.19-1.862-2.025v8.61h-2.107V119.66
			h2.106v2.549c0.431-0.817,1.053-1.483,1.862-1.992C34.156,119.704,35.102,119.451,36.182,119.451z M35.777,130.767
			c1.182,0,2.192-0.441,3.033-1.329s1.263-2.052,1.263-3.496c0-1.442-0.42-2.582-1.263-3.414c-0.843-0.831-1.853-1.249-3.033-1.249
			s-2.191,0.431-3.031,1.298c-0.84,0.861-1.263,2.007-1.263,3.435c0,1.427,0.419,2.576,1.263,3.448
			C33.587,130.332,34.597,130.767,35.777,130.767z"/>
		<path d="M46.967,117.208c-0.277,0.277-0.617,0.414-1.018,0.414c-0.403,0-0.738-0.137-1.008-0.414
			c-0.27-0.277-0.407-0.619-0.407-1.019c0-0.402,0.14-0.741,0.417-1.021c0.277-0.278,0.613-0.417,1.006-0.417
			s0.73,0.139,1.008,0.417c0.278,0.279,0.415,0.618,0.415,1.021C47.383,116.588,47.245,116.931,46.967,117.208z M44.885,132.364
			v-12.706h2.105v12.706H44.885z"/>
		<path d="M59.513,119.66l-4.096,6.341l4.072,6.367h-2.383l-3.01-4.722l-2.801,4.722h-2.291l4.096-6.298l-4.096-6.41h2.384
			l3.033,4.745l2.824-4.745H59.513L59.513,119.66z"/>
		<path d="M66.851,132.574c-1.82,0-3.302-0.604-4.444-1.808c-1.142-1.203-1.713-2.791-1.713-4.769c0-1.974,0.579-3.561,1.736-4.756
			c1.156-1.195,2.658-1.793,4.5-1.793c1.845,0,3.326,0.565,4.444,1.701c1.119,1.133,1.677,2.58,1.677,4.339
			c0,0.448-0.03,0.862-0.092,1.252H62.845c0.062,1.263,0.46,2.264,1.193,2.996c0.732,0.733,1.669,1.101,2.812,1.101
			c0.864,0,1.594-0.193,2.188-0.579c0.595-0.387,1.031-0.895,1.308-1.526h2.268c-0.401,1.111-1.091,2.027-2.07,2.753
			C69.562,132.211,68.332,132.574,66.851,132.574z M69.697,122.286c-0.756-0.733-1.694-1.102-2.812-1.102
			c-1.118,0-2.046,0.36-2.79,1.077c-0.74,0.716-1.148,1.7-1.226,2.951h7.985C70.839,123.997,70.454,123.018,69.697,122.286z"/>
		<path d="M75.669,132.364v-17.127h2.106v17.127H75.669z"/>
		<path d="M90.296,115.237v6.482c0.865-1.514,2.246-2.271,4.145-2.271c1.403,0,2.577,0.468,3.518,1.401
			c0.942,0.934,1.412,2.265,1.412,3.993v7.522h-2.084v-7.174c0-1.281-0.309-2.255-0.926-2.918c-0.617-0.662-1.468-0.994-2.557-0.994
			c-1.088,0-1.944,0.332-2.57,0.994c-0.625,0.665-0.938,1.637-0.938,2.918v7.174h-2.106v-17.128L90.296,115.237L90.296,115.237z"/>
		<path d="M104.808,117.208c-0.277,0.277-0.619,0.414-1.018,0.414c-0.403,0-0.738-0.137-1.008-0.414
			c-0.27-0.277-0.407-0.619-0.407-1.019c0-0.402,0.139-0.741,0.416-1.021c0.278-0.278,0.613-0.417,1.007-0.417
			s0.73,0.139,1.008,0.417c0.278,0.279,0.414,0.618,0.414,1.021C105.222,116.588,105.085,116.931,104.808,117.208z M102.726,132.364
			v-12.706h2.106v12.706H102.726z"/>
		<path d="M110.41,119.66v2.06c0.863-1.512,2.245-2.27,4.143-2.27c1.402,0,2.578,0.468,3.519,1.401
			c0.94,0.934,1.41,2.265,1.41,3.992v7.522h-2.083v-7.176c0-1.279-0.309-2.253-0.925-2.916c-0.619-0.662-1.471-0.994-2.556-0.994
			c-1.089,0-1.946,0.332-2.57,0.994c-0.624,0.665-0.939,1.637-0.939,2.916v7.176h-2.106v-12.708h2.108V119.66z"/>
		<path d="M127.005,130.653h1.734v1.711h-2.13c-2.205,0-3.307-1.086-3.307-3.262v-7.731h-1.646v-1.713h1.646v-3.147h2.128v3.147
			h3.289v1.713h-3.289v7.731c0,0.57,0.116,0.974,0.346,1.202C126.01,130.535,126.417,130.653,127.005,130.653z"/>
		<path d="M130.591,123.244c0-1.064,0.444-1.963,1.333-2.694c0.886-0.732,2.038-1.099,3.447-1.099c1.414,0,2.519,0.357,3.323,1.076
			c0.802,0.717,1.242,1.7,1.319,2.951h-2.177c-0.031-0.709-0.271-1.28-0.718-1.713s-1.07-0.648-1.862-0.648
			c-0.796,0-1.422,0.19-1.875,0.568c-0.455,0.376-0.683,0.863-0.683,1.457c0,0.595,0.257,1.053,0.774,1.376
			c0.518,0.325,1.141,0.561,1.874,0.707c0.732,0.147,1.465,0.315,2.198,0.509c0.734,0.194,1.358,0.556,1.875,1.089
			c0.519,0.53,0.776,1.287,0.776,2.268c0,0.982-0.444,1.807-1.333,2.476c-0.886,0.672-2.04,1.008-3.458,1.008
			c-1.421,0-2.556-0.354-3.413-1.066c-0.856-0.708-1.324-1.688-1.401-2.94h2.177c0.028,0.711,0.282,1.277,0.753,1.702
			c0.472,0.424,1.119,0.636,1.946,0.636c0.824,0,1.473-0.175,1.943-0.531c0.471-0.354,0.706-0.804,0.706-1.353
			c0-0.55-0.184-0.984-0.556-1.31c-0.369-0.323-0.833-0.547-1.39-0.671c-0.555-0.121-1.16-0.27-1.815-0.438s-1.263-0.35-1.814-0.545
			c-0.558-0.193-1.019-0.527-1.388-1.007C130.78,124.573,130.591,123.971,130.591,123.244z"/>
	</g>
	<rect x="8.13" y="103.629" fill="#FA665D" width="133.384" height="1.812"/>
	<rect x="-13.914" y="137.795" fill="#FA665D" width="155.427" height="1.812"/>
</g>
</svg>
