<?xml version="1.0" encoding="utf-8"?>
<!-- Generator: Adobe Illustrator 16.0.0, SVG Export Plug-In . SVG Version: 6.00 Build 0)  -->
<!DOCTYPE svg PUBLIC "-//W3C//DTD SVG 1.1//EN" "http://www.w3.org/Graphics/SVG/1.1/DTD/svg11.dtd">
<svg version="1.1" id="Ebene_1" xmlns="http://www.w3.org/2000/svg" xmlns:xlink="http://www.w3.org/1999/xlink" x="0px" y="0px"
	 width="126px" height="39px" viewBox="0 0 126 39" enable-background="new 0 0 126 39" xml:space="preserve">
<g>
	<path fill="#1D1D1B" d="M124.41,27.738c-0.34,0.068-1.178,0.128-1.709,0.128c-1.34,0-2.115-0.321-2.115-2.923v-6.166h3.328v-2.923
		h-3.328v-4.528h-3.393v4.528h-2.457v2.923h2.457v6.97c0,5.043,3.047,5.27,4.697,5.27c0.991,0,1.996-0.098,2.52-0.195V27.738z
		 M99.07,30.822h3.393v-7.741c0-2.569,1.117-4.527,3.48-4.527c2.432,0,3.145,1.958,3.145,4.527v7.741h3.389v-8.895
		c0-2.061-0.213-3.312-0.93-4.437c-0.809-1.252-2.271-2.023-4.357-2.023c-2.143,0-3.826,0.864-4.727,2.468V8.334H99.07V30.822z
		 M95.824,21.314c-0.221-2.891-2.15-5.846-6.877-5.846c-4.699,0-7.217,3.82-7.217,7.87c0,4.083,2.518,7.87,7.244,7.87
		c4.207,0,6.418-2.408,6.883-5.524h-3.392c-0.438,1.512-1.25,2.407-3.237,2.407c-2.926,0-4.105-2.185-4.105-4.753
		c0-2.538,1.277-4.753,3.889-4.753c2.297,0,3.236,1.088,3.42,2.729H95.824L95.824,21.314z M74.447,10.394
		c0,1.411,1.121,2.569,2.49,2.569c1.397,0,2.516-1.158,2.516-2.569c0-1.443-1.117-2.603-2.516-2.603
		C75.568,7.791,74.447,8.95,74.447,10.394 M75.256,30.822h3.389V15.855h-3.389V30.822z M68.025,22.373
		c-2.646-1.059-3.984-1.219-3.984-2.505c0-1.057,0.934-1.636,2.086-1.636c1.646,0,2.33,0.9,2.33,2.312h3.301
		c0-2.925-2.459-5.075-5.539-5.075c-2.954,0-5.444,1.512-5.444,4.335c0,2.602,1.43,3.374,3.45,4.174
		c3.051,1.224,4.514,1.318,4.514,2.729c0,1.288-1.021,1.737-2.362,1.737c-1.619,0-2.801-0.707-2.801-2.666h-3.298
		c0,3.531,2.799,5.43,5.915,5.43c3.172,0,5.781-1.441,5.781-4.561C71.973,23.918,70.043,23.178,68.025,22.373 M58.472,27.738
		c-0.337,0.068-1.182,0.128-1.708,0.128c-1.338,0-2.119-0.321-2.119-2.923v-6.166h3.333v-2.923h-3.333v-4.528h-3.389v4.528H48.8
		v2.923h2.457v6.97c0,5.043,3.051,5.27,4.698,5.27c0.993,0,1.99-0.098,2.517-0.195V27.738z M42.156,10.394
		c0,1.411,1.121,2.569,2.485,2.569c1.405,0,2.523-1.158,2.523-2.569c0-1.443-1.119-2.603-2.523-2.603
		C43.276,7.791,42.156,8.95,42.156,10.394 M42.96,30.822h3.392V15.855H42.96V30.822z M39.47,24.396
		c0.153-0.967,0.153-1.67,0.153-2.186c0-3.819-2.956-6.743-6.715-6.743c-4.577,0-7.162,3.369-7.162,7.87
		c0,4.398,2.369,7.87,7.25,7.87c3.704,0,6.101-2.312,6.505-4.881H36.08c-0.405,1.062-1.155,1.958-3.083,1.958
		c-2.83,0-3.732-1.739-3.889-3.891H39.47V24.396z M32.813,18.103c2.052,0,3.516,1.411,3.516,3.691h-7.222
		C29.107,19.357,30.725,18.103,32.813,18.103 M17.118,30.822h2.269l5.633-14.967h-3.639l-3.145,9.474l-3.266-9.474h-3.328
		l-3.267,9.474L5.23,15.855H1.59l5.632,14.967h2.273l3.827-11.18L17.118,30.822z"/>
</g>
</svg>
